
 #     #                            
 #  #  # #####    ##   ##### #    # 
 #  #  # #    #  #  #    #   #    # 
 #  #  # #    # #    #   #   ###### 
 #  #  # #####  ######   #   #    # 
 #  #  # #   #  #    #   #   #    # 
  ## ##  #    # #    #   #   #    # 
                                    


File Name
Megamind 2010 1080p BRRip H264 Wrath.mp4

File Size
Format : MPEG-4
Format profile : Base Media
Codec ID : isom
File size : 3.73 GiB
Duration : 1h 35mn
Overall bit rate : 5 581 Kbps

Video
ID : 1
Format : AVC
Format/Info : Advanced Video Codec
Format profile : High@L4.1
Format settings, CABAC : Yes
Format settings, ReFrames : 3 frames
Codec ID : avc1
Codec ID/Info : Advanced Video Coding
Duration : 1h 35mn
Bit rate mode : Variable
Bit rate : 4 949 Kbps
Maximum bit rate : 31.2 Mbps
Width : 1 920 pixels
Height : 816 pixels
Display aspect ratio : 2.35:1
Frame rate mode : Constant
Frame rate : 23.976 fps
Resolution : 24 bits
Colorimetry : 4:2:0
Scan type : Progressive
Bits/(Pixel*Frame) : 0.132
Stream size : 3.30 GiB (89%)

Audio #1
ID : 2
Format : AAC
Format/Info : Advanced Audio Codec
Format version : Version 4
Format profile : LC
Format settings, SBR : No
Codec ID : 40
Duration : 1h 35mn
Bit rate mode : Variable
Bit rate : 192 Kbps
Maximum bit rate : 268 Kbps
Channel(s) : 2 channels
Channel positions : L R
Sampling rate : 48.0 KHz
Resolution : 16 bits
Stream size : 131 MiB (3%)

Audio #2
ID : 3
Format : AAC
Format/Info : Advanced Audio Codec
Format version : Version 4
Format profile : LC
Format settings, SBR : No
Codec ID : 40
Bit rate mode : Variable
Bit rate : 438 Kbps
Maximum bit rate : 588 Kbps
Channel(s) : 6 channels
Channel positions : Front: L C R, Rear: L R, LFE
Sampling rate : 48.0 KHz
Resolution : 16 bits
Stream size : 300 MiB (8%)

English SRT : External
Language : English





================================== 
http://thepiratebay.org/user/hiest
==================================





Screen Shots:
 
http://leetleech.org/images/75787459549950094915.png
 
http://leetleech.org/images/81605999382618013994.png
 
http://leetleech.org/images/43670795680271719271.png
 
http://leetleech.org/images/50734838001209674464.png


 #     #                            
 #  #  # #####    ##   ##### #    # 
 #  #  # #    #  #  #    #   #    # 
 #  #  # #    # #    #   #   ###### 
 #  #  # #####  ######   #   #    # 
 #  #  # #   #  #    #   #   #    # 
  ## ##  #    # #    #   #   #    # 
                                    
